<svg xmlns="http://www.w3.org/2000/svg" version="1.1" xmlns:xlink="http://www.w3.org/1999/xlink" xmlns:svgjs="http://svgjs.dev/svgjs" width="100%" height="100%" viewBox="0 0 1000 600"><rect width="1000" height="600" x="0" y="0" fill="#ffffff"/><g><circle r="166.66666666666666" cx="341.66616312662757" cy="363.8883657539176" fill="#42b0db" transform="matrix(0.7142879564005328,0,0,0.7142879564005328,0,40.07893503835973)"/><path d="M300.847709010762 438.88836604627033L300.847709010762 288.88837058757645L382.4846113010789 288.88837058757645L382.4846113010789 304.75146534541057L318.6453275195515 304.75146534541057L318.6453275195515 355.97170188993675L378.19889714511623 355.97170188993675L378.19889714511623 371.80503474391L318.6453275195515 371.80503474391L318.6453275195515 438.88836604627033L300.847709010762 438.88836604627033Z " fill="#ffffff" transform="matrix(0.7142879564005328,0,0,0.7142879564005328,0,40.07893503835973)"/><path d="M591.666159932782 436.3717822347851L591.666159932782 288.8883705113859L671.9334215116081 288.8883705113859L671.9334215116081 304.4853265527692L609.1651837840901 304.4853265527692L609.1651837840901 354.84622964323944L667.7196097480825 354.84622964323944L667.7196097480825 370.41392310293156L609.1651837840901 370.41392310293156L609.1651837840901 436.3717822347851L591.666159932782 436.3717822347851ZM702.4835567971694 351.451770167066L697.2162920927623 338.8103348764889Q705.2342394761375 333.9820088974491 715.8565566300252 331.6702649438481Q726.5081363656041 329.32925840855614 738.0961187152997 329.32925840855614L738.0961187152997 329.32925840855614Q749.0403242677901 329.32925840855614 755.6829303116813 332.2847791593623Q762.3255363555725 335.24029991016846 765.8077835768194 339.98083814413496Q769.2900307980664 344.72137637810135 770.4312714840212 350.39831722618453Q771.6017747516672 356.10452065595894 771.6017747516672 361.7814615040421L771.6017747516672 361.7814615040421Q771.6017747516672 374.4228967946192 770.9579979544619 386.4498178696821Q770.3434837389478 398.44747636305385 770.3434837389478 409.18684384370613L770.3434837389478 409.18684384370613Q770.3434837389478 416.99995315524336 770.9579979544619 423.93518501604615Q771.6017747516672 430.89967945853994 773.2697419080628 436.78145837846125L773.2697419080628 436.78145837846125L760.862407271015 436.78145837846125L756.41449485396 422.03311720612135L755.3610419130786 422.03311720612135Q753.488236684845 424.9886379569275 750.6205036791122 427.8271083809691Q747.7820332550706 430.6948413867019 743.773059563383 432.8895350135382Q739.7933484533864 435.1134912220656 734.5260837489793 436.5766203066232Q729.2588190445723 438.06901197287186 722.4991626739164 438.06901197287186L722.4991626739164 438.06901197287186Q715.7687688849518 438.06901197287186 709.9747777101039 435.96210609110904Q704.1807865352562 433.8552002093462 699.9669747717304 429.93401426273203Q695.7531630082048 426.042090897809 693.3243687278392 420.5699881215638Q690.8955744474738 415.0978853453187 690.8955744474738 408.1333909028248L690.8955744474738 408.1333909028248Q690.8955744474738 398.85715250673 694.6997100673233 392.6534851882061Q698.4745831054818 386.4498178696821 705.322027221211 382.76273257659716Q712.1694713369403 379.0756472835121 721.7675981316377 377.49546787219003Q731.365724926335 375.91528846086794 742.9537072760307 375.91528846086794L742.9537072760307 375.91528846086794Q745.8799654451458 375.91528846086794 748.7476984508786 375.91528846086794Q751.5861688749202 375.91528846086794 754.5416896257263 376.324964604544L754.5416896257263 376.324964604544Q755.1562038412405 370.0042469592555 755.1562038412405 364.9418203266864L755.1562038412405 364.9418203266864Q755.1562038412405 353.3538379769908 750.5327159340387 348.730350069789Q745.8799654451458 344.07759958089605 733.677468879936 344.07759958089605L733.677468879936 344.07759958089605Q730.0781713319244 344.07759958089605 725.9814098951634 344.6043260513368Q721.8846484584022 345.1310525217774 717.553786368112 346.0967177175854Q713.2229242778217 347.0331203317022 709.3310009128986 348.4084616711863Q705.4390775479757 349.78380301067034 702.4835567971694 351.451770167066L702.4835567971694 351.451770167066ZM727.1519131628094 423.32067080053196L727.1519131628094 423.32067080053196Q733.0336920827307 423.32067080053196 737.6864425716236 421.74049138920975Q742.3099304788254 420.16031197788766 745.6751273733078 417.7315176975221Q749.0403242677901 415.3027234171567 751.2642804763175 412.3472026663504Q753.488236684845 409.39168191554427 754.5416896257263 406.67026181826725L754.5416896257263 406.67026181826725L754.5416896257263 389.1712379669592Q751.5861688749202 388.96639989512107 748.5135977973493 388.8493495683565Q745.4702893014697 388.76156182328305 742.5147685506635 388.76156182328305L742.5147685506635 388.76156182328305Q735.9892128335368 388.76156182328305 729.7855455150129 389.4931263655618Q723.5526156147979 390.22469090784057 718.8120773808315 392.24380904452994Q714.0715391468651 394.2336645995282 711.2330687228234 397.7159118207751Q708.3945982987818 401.1981590420221 708.3945982987818 406.4654237464292L708.3945982987818 406.4654237464292Q708.3945982987818 413.8395943325992 713.661863003189 418.58013256656557Q718.9291277075961 423.32067080053196 727.1519131628094 423.32067080053196ZM789.5104747466514 345.7748293189827L789.5104747466514 331.0264881466428L805.9267830753869 331.0264881466428L805.9267830753869 310.16226740085244L822.7820301294896 305.3339414218126L822.7820301294896 331.0264881466428L851.4593601868173 331.0264881466428L851.4593601868173 345.7748293189827L822.7820301294896 345.7748293189827L822.7820301294896 404.12441721113714Q822.7820301294896 415.0978853453187 825.5327128084579 419.6335855074469Q828.283395487426 424.1400230878842 834.8089512045525 424.1400230878842L834.8089512045525 424.1400230878842Q840.2810539807978 424.1400230878842 844.0851896006474 422.99878240192925Q847.8600626388057 421.8282791342832 852.5128131276987 419.9262113243585L852.5128131276987 419.9262113243585L856.2876861658572 432.80174726846474Q850.6107453177739 435.52316736574176 843.8510889471181 437.22039710382853Q837.1206951581535 438.8883642602241 829.3368484283075 438.8883642602241L829.3368484283075 438.8883642602241Q816.4613124842011 438.8883642602241 811.194047779794 431.6312440008187Q805.9267830753869 424.3741237414133 805.9267830753869 407.28477603378144L805.9267830753869 407.28477603378144L805.9267830753869 345.7748293189827L789.5104747466514 345.7748293189827ZM943.109766043501 415.71239956083275L949.4304836887896 427.9441587077338Q943.109766043501 433.00658534030276 933.5116392488037 435.96210609110904Q923.9135124541064 438.8883642602241 913.174144973454 438.8883642602241L913.174144973454 438.8883642602241Q901.1764864800822 438.8883642602241 892.3099242276636 434.996440895301Q883.4726245569361 431.10451753037796 877.7956837088528 423.8473972709727Q872.0894802790784 416.5610144298762 869.3680601818015 406.4654237464292Q866.6173775028334 396.340570481291 866.6173775028334 383.69913519071395L866.6173775028334 383.69913519071395Q866.6173775028334 356.7190348714731 878.6150359962052 342.6144704963385Q890.6419570712679 328.5099061212039 912.9693069016158 328.5099061212039L912.9693069016158 328.5099061212039Q920.1386394159478 328.5099061212039 927.3079719302797 330.090085532526Q934.4480418629205 331.6702649438481 940.1542452926949 336.0889147792119Q945.8311861407782 340.5075646145757 949.4304836887896 348.6132997430244Q953.00051865511 356.7190348714731 953.00051865511 370.0042469592555L953.00051865511 370.0042469592555Q953.00051865511 376.9687414017493 951.7422276423905 385.3963649288007L951.7422276423905 385.3963649288007L884.1164013541414 385.3963649288007Q884.1164013541414 394.64334074320436 885.989206582375 401.8126732575362Q887.8912743922998 408.9820057718681 891.9002480839875 413.92738207767263Q895.9092217756751 418.87275838347705 902.3177271660371 421.5063907356806Q908.7554951380902 424.1400230878842 918.031733534185 424.1400230878842L918.031733534185 424.1400230878842Q925.201066048517 424.1400230878842 932.3411359811577 421.6234410624452Q939.5104684954896 419.1068590370063 943.109766043501 415.71239956083275L943.109766043501 415.71239956083275ZM913.174144973454 343.25824729354383L913.174144973454 343.25824729354383Q900.7375477547149 343.25824729354383 893.2755894234716 349.78380301067034Q885.784368510537 356.30935872779696 884.3212394259795 372.11115284101834L884.3212394259795 372.11115284101834L936.5549477446833 372.11115284101834Q936.5549477446833 356.10452065595894 930.4683307529241 349.66675268390577Q924.3524511794735 343.25824729354383 913.174144973454 343.25824729354383ZM1058.1409746714144 436.3717822347851L1041.2857276173117 436.3717822347851L1041.2857276173117 376.73464074822016Q1041.2857276173117 368.30701722116873 1040.5541630750326 362.1033499026448Q1039.793335951063 355.8996825841209 1037.6864300693 351.68587082059514Q1035.5795241875371 347.4720590570695 1031.687600822614 345.36515317530666Q1027.795677457691 343.25824729354383 1021.4749598124025 343.25824729354383L1021.4749598124025 343.25824729354383Q1011.7890452726316 343.25824729354383 1005.3512773005785 349.14002621346503Q998.9427719102165 355.05106771507747 996.3969273030865 363.88836738580505L996.3969273030865 363.88836738580505L996.3969273030865 436.3717822347851L979.5416802489837 436.3717822347851L979.5416802489837 331.0264881466428L991.3345006705173 331.0264881466428L994.4948594931617 343.8727615090579L995.3434743622049 343.8727615090579Q1001.0496777919794 337.1423677200934 1008.5116361232227 332.81150562980304Q1016.0028570361573 328.5099061212039 1028.000515529529 328.5099061212039L1028.000515529529 328.5099061212039Q1038.1253687946673 328.5099061212039 1044.5338741850292 332.40182948612687Q1050.9716421570824 336.29375285104993 1054.5416771234027 345.97966739082085L1054.5416771234027 345.97966739082085Q1059.3992656841338 337.75688193560745 1067.9439395379495 333.13339402840563Q1076.4593508100747 328.5099061212039 1087.198718290727 328.5099061212039L1087.198718290727 328.5099061212039Q1096.0652805431455 328.5099061212039 1102.181160116596 330.49976167620207Q1108.2677771083554 332.4896172312003 1112.276750800043 337.5520438637694Q1116.2857244917304 342.6144704963385 1118.0707419748906 351.246932095228Q1119.8557594580511 359.8793936941173 1119.8557594580511 373.1646057818997L1119.8557594580511 373.1646057818997L1119.8557594580511 436.3717822347851L1103.000512403948 436.3717822347851L1103.000512403948 372.95976771006167Q1103.000512403948 365.3807590520537 1102.2689478616694 359.79160594904386Q1101.5373833193908 354.20245284603413 1099.3134271108634 350.5153675529491Q1097.118733484027 346.8282822598642 1093.226810119104 345.04326477670395Q1089.3056241724898 343.25824729354383 1082.984906527201 343.25824729354383L1082.984906527201 343.25824729354383Q1072.4503771183868 343.25824729354383 1066.5685981984657 349.14002621346503Q1060.6575566968531 355.05106771507747 1058.1409746714144 365.9952732675679L1058.1409746714144 365.9952732675679L1058.1409746714144 436.3717822347851ZM1154.210030363462 351.451770167066L1148.9427656590547 338.8103348764889Q1156.9607130424301 333.9820088974491 1167.5830301963178 331.6702649438481Q1178.2346099318966 329.32925840855614 1189.8225922815923 329.32925840855614L1189.8225922815923 329.32925840855614Q1200.7667978340824 329.32925840855614 1207.4094038779735 332.2847791593623Q1214.0520099218647 335.24029991016846 1217.5342571431115 339.98083814413496Q1220.9872417826673 344.72137637810135 1222.1577450503137 350.39831722618453Q1223.3282483179596 356.10452065595894 1223.3282483179596 361.7814615040421L1223.3282483179596 361.7814615040421Q1223.3282483179596 374.4228967946192 1222.6844715207544 386.4498178696821Q1222.0406947235488 398.44747636305385 1222.0406947235488 409.18684384370613L1222.0406947235488 409.18684384370613Q1222.0406947235488 416.99995315524336 1222.6844715207544 423.93518501604615Q1223.3282483179596 430.89967945853994 1224.9962154743553 436.78145837846125L1224.9962154743553 436.78145837846125L1212.559618255616 436.78145837846125L1208.1409684202522 422.03311720612135L1207.0875154793707 422.03311720612135Q1205.1854476694461 424.9886379569275 1202.3469772454046 427.8271083809691Q1199.508506821363 430.6948413867019 1195.4995331296755 432.8895350135382Q1191.4905594379875 435.1134912220656 1186.2232947335806 436.5766203066232Q1180.9560300291737 438.06901197287186 1174.225636240209 438.06901197287186L1174.225636240209 438.06901197287186Q1167.4952424512444 438.06901197287186 1161.7012512763963 435.96210609110904Q1155.9072601015487 433.8552002093462 1151.6934483380228 429.93401426273203Q1147.4796365744974 426.042090897809 1145.0508422941316 420.5699881215638Q1142.6220480137663 415.0978853453187 1142.6220480137663 408.1333909028248L1142.6220480137663 408.1333909028248Q1142.6220480137663 398.85715250673 1146.426183633616 392.6534851882061Q1150.201056671774 386.4498178696821 1157.0485007875036 382.76273257659716Q1163.8959449032327 379.0756472835121 1173.49407169793 377.49546787219003Q1183.0629359109362 375.91528846086794 1194.650918260632 375.91528846086794L1194.650918260632 375.91528846086794Q1197.6064390114384 375.91528846086794 1200.4449094354795 375.91528846086794Q1203.3126424412126 375.91528846086794 1206.2389006103276 376.324964604544L1206.2389006103276 376.324964604544Q1206.8826774075328 370.0042469592555 1206.8826774075328 364.9418203266864L1206.8826774075328 364.9418203266864Q1206.8826774075328 353.3538379769908 1202.259189500331 348.730350069789Q1197.6064390114384 344.07759958089605 1185.4039424462285 344.07759958089605L1185.4039424462285 344.07759958089605Q1181.8046448982168 344.07759958089605 1177.7078834614558 344.6043260513368Q1173.5818594430034 345.1310525217774 1169.2802599344045 346.0967177175854Q1164.9493978441142 347.0331203317022 1161.0574744791911 348.4084616711863Q1157.165551114268 349.78380301067034 1154.210030363462 351.451770167066L1154.210030363462 351.451770167066ZM1178.8491241474107 423.32067080053196L1178.8491241474107 423.32067080053196Q1184.7601656490233 423.32067080053196 1189.383653556225 421.74049138920975Q1194.0364040451177 420.16031197788766 1197.4016009396 417.7315176975221Q1200.7667978340824 415.3027234171567 1202.9907540426098 412.3472026663504Q1205.1854476694461 409.39168191554427 1206.2389006103276 406.67026181826725L1206.2389006103276 406.67026181826725L1206.2389006103276 389.1712379669592Q1203.3126424412126 388.96639989512107 1200.2400713636416 388.8493495683565Q1197.1967628677621 388.76156182328305 1194.241242116956 388.76156182328305L1194.241242116956 388.76156182328305Q1187.7156863998293 388.76156182328305 1181.4827564996144 389.4931263655618Q1175.27908918109 390.22469090784057 1170.538550947124 392.24380904452994Q1165.7980127131573 394.2336645995282 1162.9595422891157 397.7159118207751Q1160.121071865074 401.1981590420221 1160.121071865074 406.4654237464292L1160.121071865074 406.4654237464292Q1160.121071865074 413.8395943325992 1165.3883365694815 418.58013256656557Q1170.6556012738884 423.32067080053196 1178.8491241474107 423.32067080053196Z " fill="#42b0db" transform="matrix(0.7142879564005328,0,0,0.7142879564005328,0,40.07893503835973)"/></g></svg>